<?xml version="1.0" encoding="UTF-8" standalone="no"?>
<!DOCTYPE svg PUBLIC "-//W3C//DTD SVG 1.1//EN"
 "http://www.w3.org/Graphics/SVG/1.1/DTD/svg11.dtd">
<!-- Generated by graphviz version 2.40.1 (20161225.0304)
 -->
<!-- Title: dependencies Pages: 1 -->
<svg width="871pt" height="349pt"
 viewBox="0.00 0.00 871.00 349.00" xmlns="http://www.w3.org/2000/svg" xmlns:xlink="http://www.w3.org/1999/xlink">
<g id="graph0" class="graph" transform="scale(1 1) rotate(0) translate(4 345)">
<title>dependencies</title>
<polygon fill="#ffffff" stroke="transparent" points="-4,4 -4,-345 867,-345 867,4 -4,4"/>
<text text-anchor="start" x="410.5091" y="-42.4" font-family="sans-serif" font-weight="bold" font-size="14.00" fill="#000000">Legend</text>
<polygon fill="#ffffb3" stroke="transparent" points="197.5,-10 197.5,-30 217.5,-30 217.5,-10 197.5,-10"/>
<text text-anchor="start" x="221.129" y="-15.4" font-family="sans-serif" font-size="14.00" fill="#000000"> &#160;Declarations</text>
<polygon fill="#8dd3c7" stroke="transparent" points="310.5,-10 310.5,-30 330.5,-30 330.5,-10 310.5,-10"/>
<text text-anchor="start" x="334.2251" y="-15.4" font-family="sans-serif" font-size="14.00" fill="#000000"> &#160;Module</text>
<polygon fill="#80b1d3" stroke="transparent" points="396.5,-10 396.5,-30 416.5,-30 416.5,-10 396.5,-10"/>
<text text-anchor="start" x="420.2812" y="-15.4" font-family="sans-serif" font-size="14.00" fill="#000000"> &#160;Bootstrap</text>
<polygon fill="#fdb462" stroke="transparent" points="493.5,-10 493.5,-30 513.5,-30 513.5,-10 493.5,-10"/>
<text text-anchor="start" x="517.1732" y="-15.4" font-family="sans-serif" font-size="14.00" fill="#000000"> &#160;Providers</text>
<polygon fill="#fb8072" stroke="transparent" points="589.5,-10 589.5,-30 609.5,-30 609.5,-10 589.5,-10"/>
<text text-anchor="start" x="613.2258" y="-15.4" font-family="sans-serif" font-size="14.00" fill="#000000"> &#160;Exports</text>
<g id="clust1" class="cluster">
<title>cluster_SingleSelectModule</title>
<polygon fill="none" stroke="#000000" stroke-dasharray="1,5" points="8,-70 8,-333 855,-333 855,-70 8,-70"/>
</g>
<g id="clust2" class="cluster">
<title>cluster_SingleSelectModule_declarations</title>
<polygon fill="none" stroke="#000000" points="679,-143 679,-195 847,-195 847,-143 679,-143"/>
</g>
<g id="clust3" class="cluster">
<title>cluster_SingleSelectModule_SingleSelectComponent_providers</title>
<polygon fill="none" stroke="#000000" points="329,-78 329,-130 847,-130 847,-78 329,-78"/>
</g>
<g id="clust4" class="cluster">
<title>cluster_SingleSelectModule_imports</title>
<polygon fill="none" stroke="#000000" points="16,-143 16,-195 671,-195 671,-143 16,-143"/>
</g>
<g id="clust5" class="cluster">
<title>cluster_SingleSelectModule_exports</title>
<polygon fill="none" stroke="#000000" points="285,-273 285,-325 575,-325 575,-273 285,-273"/>
</g>
<!-- SingleSelectComponent -->
<g id="node1" class="node">
<title>SingleSelectComponent</title>
<polygon fill="#ffffb3" stroke="#000000" points="838.8187,-187 687.1813,-187 687.1813,-151 838.8187,-151 838.8187,-187"/>
<text text-anchor="middle" x="763" y="-164.8" font-family="Times,serif" font-size="14.00" fill="#000000">SingleSelectComponent</text>
</g>
<!-- SingleSelectModule -->
<g id="node2" class="node">
<title>SingleSelectModule</title>
<polygon fill="#8dd3c7" stroke="#000000" points="481.5366,-252 478.5366,-256 457.5366,-256 454.5366,-252 352.4634,-252 352.4634,-216 481.5366,-216 481.5366,-252"/>
<text text-anchor="middle" x="417" y="-229.8" font-family="Times,serif" font-size="14.00" fill="#000000">SingleSelectModule</text>
</g>
<!-- SingleSelectComponent&#45;&gt;SingleSelectModule -->
<g id="edge1" class="edge">
<title>SingleSelectComponent&#45;&gt;SingleSelectModule</title>
<path fill="none" stroke="#000000" d="M763,-187.2843C763,-208.3211 763,-240 763,-240 763,-240 491.6741,-240 491.6741,-240"/>
<polygon fill="#000000" stroke="#000000" points="491.6741,-236.5001 481.6741,-240 491.674,-243.5001 491.6741,-236.5001"/>
</g>
<!-- SingleSelectComponent  -->
<g id="node9" class="node">
<title>SingleSelectComponent </title>
<polygon fill="#fb8072" stroke="#000000" points="567.3185,-317 412.6815,-317 412.6815,-281 567.3185,-281 567.3185,-317"/>
<text text-anchor="middle" x="490" y="-294.8" font-family="Times,serif" font-size="14.00" fill="#000000">SingleSelectComponent </text>
</g>
<!-- SingleSelectModule&#45;&gt;SingleSelectComponent  -->
<g id="edge8" class="edge">
<title>SingleSelectModule&#45;&gt;SingleSelectComponent </title>
<path fill="none" stroke="#000000" stroke-dasharray="5,2" d="M447.1794,-252.1061C447.1794,-252.1061 447.1794,-270.991 447.1794,-270.991"/>
<polygon fill="#000000" stroke="#000000" points="443.6794,-270.9909 447.1794,-280.991 450.6794,-270.991 443.6794,-270.9909"/>
</g>
<!-- RouterModule  -->
<g id="node10" class="node">
<title>RouterModule </title>
<polygon fill="#fb8072" stroke="#000000" points="394.6523,-317 293.3477,-317 293.3477,-281 394.6523,-281 394.6523,-317"/>
<text text-anchor="middle" x="344" y="-294.8" font-family="Times,serif" font-size="14.00" fill="#000000">RouterModule </text>
</g>
<!-- SingleSelectModule&#45;&gt;RouterModule  -->
<g id="edge9" class="edge">
<title>SingleSelectModule&#45;&gt;RouterModule </title>
<path fill="none" stroke="#000000" stroke-dasharray="5,2" d="M373.4041,-252.1061C373.4041,-252.1061 373.4041,-270.991 373.4041,-270.991"/>
<polygon fill="#000000" stroke="#000000" points="369.9042,-270.9909 373.4041,-280.991 376.9042,-270.991 369.9042,-270.9909"/>
</g>
<!-- { provide: NG_VALUE_ACCESSOR, useExisting: , multi: &#160;} -->
<g id="node3" class="node">
<title>{ provide: NG_VALUE_ACCESSOR, useExisting: , multi: &#160;}</title>
<ellipse fill="#fdb462" stroke="#000000" cx="588" cy="-104" rx="251.4985" ry="18"/>
<text text-anchor="middle" x="588" y="-99.8" font-family="Times,serif" font-size="14.00" fill="#000000">{ provide: NG_VALUE_ACCESSOR, useExisting: , multi: &#160;}</text>
</g>
<!-- { provide: NG_VALUE_ACCESSOR, useExisting: , multi: &#160;}&#45;&gt;SingleSelectComponent -->
<g id="edge2" class="edge">
<title>{ provide: NG_VALUE_ACCESSOR, useExisting: , multi: &#160;}&#45;&gt;SingleSelectComponent</title>
<path fill="none" stroke="#000000" d="M763,-117.1537C763,-117.1537 763,-140.6938 763,-140.6938"/>
<polygon fill="#000000" stroke="#000000" points="759.5001,-140.6938 763,-150.6938 766.5001,-140.6939 759.5001,-140.6938"/>
</g>
<!-- CommonModule -->
<g id="node4" class="node">
<title>CommonModule</title>
<polygon fill="#8dd3c7" stroke="#000000" points="662.6681,-187 659.6681,-191 638.6681,-191 635.6681,-187 551.3319,-187 551.3319,-151 662.6681,-151 662.6681,-187"/>
<text text-anchor="middle" x="607" y="-164.8" font-family="Times,serif" font-size="14.00" fill="#000000">CommonModule</text>
</g>
<!-- CommonModule&#45;&gt;SingleSelectModule -->
<g id="edge3" class="edge">
<title>CommonModule&#45;&gt;SingleSelectModule</title>
<path fill="none" stroke="#000000" d="M559.2877,-187.0225C559.2877,-204.3734 559.2877,-228 559.2877,-228 559.2877,-228 491.8981,-228 491.8981,-228"/>
<polygon fill="#000000" stroke="#000000" points="491.8982,-224.5001 481.8981,-228 491.8981,-231.5001 491.8982,-224.5001"/>
</g>
<!-- FormsModule -->
<g id="node5" class="node">
<title>FormsModule</title>
<polygon fill="#8dd3c7" stroke="#000000" points="533.8288,-187 530.8288,-191 509.8288,-191 506.8288,-187 438.1712,-187 438.1712,-151 533.8288,-151 533.8288,-187"/>
<text text-anchor="middle" x="486" y="-164.8" font-family="Times,serif" font-size="14.00" fill="#000000">FormsModule</text>
</g>
<!-- FormsModule&#45;&gt;SingleSelectModule -->
<g id="edge4" class="edge">
<title>FormsModule&#45;&gt;SingleSelectModule</title>
<path fill="none" stroke="#000000" d="M460.0519,-187.1061C460.0519,-187.1061 460.0519,-205.991 460.0519,-205.991"/>
<polygon fill="#000000" stroke="#000000" points="456.552,-205.9909 460.0519,-215.991 463.552,-205.991 456.552,-205.9909"/>
</g>
<!-- ReactiveFormsModule -->
<g id="node6" class="node">
<title>ReactiveFormsModule</title>
<polygon fill="#8dd3c7" stroke="#000000" points="420.3047,-187 417.3047,-191 396.3047,-191 393.3047,-187 275.6953,-187 275.6953,-151 420.3047,-151 420.3047,-187"/>
<text text-anchor="middle" x="348" y="-164.8" font-family="Times,serif" font-size="14.00" fill="#000000">ReactiveFormsModule</text>
</g>
<!-- ReactiveFormsModule&#45;&gt;SingleSelectModule -->
<g id="edge5" class="edge">
<title>ReactiveFormsModule&#45;&gt;SingleSelectModule</title>
<path fill="none" stroke="#000000" d="M386.1921,-187.1061C386.1921,-187.1061 386.1921,-205.991 386.1921,-205.991"/>
<polygon fill="#000000" stroke="#000000" points="382.6922,-205.9909 386.1921,-215.991 389.6922,-205.991 382.6922,-205.9909"/>
</g>
<!-- ValidatorsModule -->
<g id="node7" class="node">
<title>ValidatorsModule</title>
<polygon fill="#8dd3c7" stroke="#000000" points="257.8627,-187 254.8627,-191 233.8627,-191 230.8627,-187 140.1373,-187 140.1373,-151 257.8627,-151 257.8627,-187"/>
<text text-anchor="middle" x="199" y="-164.8" font-family="Times,serif" font-size="14.00" fill="#000000">ValidatorsModule</text>
</g>
<!-- ValidatorsModule&#45;&gt;SingleSelectModule -->
<g id="edge6" class="edge">
<title>ValidatorsModule&#45;&gt;SingleSelectModule</title>
<path fill="none" stroke="#000000" d="M199,-187.0225C199,-204.3734 199,-228 199,-228 199,-228 342.183,-228 342.183,-228"/>
<polygon fill="#000000" stroke="#000000" points="342.1831,-231.5001 352.183,-228 342.183,-224.5001 342.1831,-231.5001"/>
</g>
<!-- SharedModule -->
<g id="node8" class="node">
<title>SharedModule</title>
<polygon fill="#8dd3c7" stroke="#000000" points="122.4231,-187 119.4231,-191 98.4231,-191 95.4231,-187 23.5769,-187 23.5769,-151 122.4231,-151 122.4231,-187"/>
<text text-anchor="middle" x="73" y="-164.8" font-family="Times,serif" font-size="14.00" fill="#000000">SharedModule</text>
</g>
<!-- SharedModule&#45;&gt;SingleSelectModule -->
<g id="edge7" class="edge">
<title>SharedModule&#45;&gt;SingleSelectModule</title>
<path fill="none" stroke="#000000" d="M73,-187.2843C73,-208.3211 73,-240 73,-240 73,-240 342.2962,-240 342.2962,-240"/>
<polygon fill="#000000" stroke="#000000" points="342.2963,-243.5001 352.2962,-240 342.2962,-236.5001 342.2963,-243.5001"/>
</g>
</g>
</svg>
