<?xml version="1.0" encoding="UTF-8" standalone="no"?>
<!DOCTYPE svg PUBLIC "-//W3C//DTD SVG 1.1//EN"
 "http://www.w3.org/Graphics/SVG/1.1/DTD/svg11.dtd">
<!-- Generated by graphviz version 2.40.1 (20161225.0304)
 -->
<!-- Title: dependencies Pages: 1 -->
<svg width="547pt" height="211pt"
 viewBox="0.00 0.00 547.00 211.00" xmlns="http://www.w3.org/2000/svg" xmlns:xlink="http://www.w3.org/1999/xlink">
<g id="graph0" class="graph" transform="scale(1 1) rotate(0) translate(4 207)">
<title>dependencies</title>
<polygon fill="#ffffff" stroke="transparent" points="-4,4 -4,-207 543,-207 543,4 -4,4"/>
<text text-anchor="start" x="248.5091" y="-42.4" font-family="sans-serif" font-weight="bold" font-size="14.00" fill="#000000">Legend</text>
<polygon fill="#ffffb3" stroke="transparent" points="35.5,-10 35.5,-30 55.5,-30 55.5,-10 35.5,-10"/>
<text text-anchor="start" x="59.129" y="-15.4" font-family="sans-serif" font-size="14.00" fill="#000000"> &#160;Declarations</text>
<polygon fill="#8dd3c7" stroke="transparent" points="148.5,-10 148.5,-30 168.5,-30 168.5,-10 148.5,-10"/>
<text text-anchor="start" x="172.2251" y="-15.4" font-family="sans-serif" font-size="14.00" fill="#000000"> &#160;Module</text>
<polygon fill="#80b1d3" stroke="transparent" points="234.5,-10 234.5,-30 254.5,-30 254.5,-10 234.5,-10"/>
<text text-anchor="start" x="258.2812" y="-15.4" font-family="sans-serif" font-size="14.00" fill="#000000"> &#160;Bootstrap</text>
<polygon fill="#fdb462" stroke="transparent" points="331.5,-10 331.5,-30 351.5,-30 351.5,-10 331.5,-10"/>
<text text-anchor="start" x="355.1732" y="-15.4" font-family="sans-serif" font-size="14.00" fill="#000000"> &#160;Providers</text>
<polygon fill="#fb8072" stroke="transparent" points="427.5,-10 427.5,-30 447.5,-30 447.5,-10 427.5,-10"/>
<text text-anchor="start" x="451.2258" y="-15.4" font-family="sans-serif" font-size="14.00" fill="#000000"> &#160;Exports</text>
<g id="clust1" class="cluster">
<title>cluster_SharedModule</title>
<polygon fill="none" stroke="#000000" stroke-dasharray="1,5" points="8,-70 8,-195 531,-195 531,-70 8,-70"/>
</g>
<g id="clust6" class="cluster">
<title>cluster_SharedModule_providers</title>
<polygon fill="none" stroke="#000000" points="16,-78 16,-130 523,-130 523,-78 16,-78"/>
</g>
<!-- ClipboardService -->
<g id="node1" class="node">
<title>ClipboardService</title>
<ellipse fill="#fdb462" stroke="#000000" cx="436" cy="-104" rx="78.7298" ry="18"/>
<text text-anchor="middle" x="436" y="-99.8" font-family="Times,serif" font-size="14.00" fill="#000000">ClipboardService</text>
</g>
<!-- SharedModule -->
<g id="node4" class="node">
<title>SharedModule</title>
<polygon fill="#8dd3c7" stroke="#000000" points="326.4231,-187 323.4231,-191 302.4231,-191 299.4231,-187 227.5769,-187 227.5769,-151 326.4231,-151 326.4231,-187"/>
<text text-anchor="middle" x="277" y="-164.8" font-family="Times,serif" font-size="14.00" fill="#000000">SharedModule</text>
</g>
<!-- ClipboardService&#45;&gt;SharedModule -->
<g id="edge1" class="edge">
<title>ClipboardService&#45;&gt;SharedModule</title>
<path fill="none" stroke="#000000" d="M436,-122.1061C436,-141.3391 436,-169 436,-169 436,-169 336.437,-169 336.437,-169"/>
<polygon fill="#000000" stroke="#000000" points="336.4371,-165.5001 326.437,-169 336.437,-172.5001 336.4371,-165.5001"/>
</g>
<!-- ErrorHandler -->
<g id="node2" class="node">
<title>ErrorHandler</title>
<ellipse fill="#fdb462" stroke="#000000" cx="277" cy="-104" rx="62.518" ry="18"/>
<text text-anchor="middle" x="277" y="-99.8" font-family="Times,serif" font-size="14.00" fill="#000000">ErrorHandler</text>
</g>
<!-- ErrorHandler&#45;&gt;SharedModule -->
<g id="edge2" class="edge">
<title>ErrorHandler&#45;&gt;SharedModule</title>
<path fill="none" stroke="#000000" d="M277,-122.1061C277,-122.1061 277,-140.991 277,-140.991"/>
<polygon fill="#000000" stroke="#000000" points="273.5001,-140.9909 277,-150.991 280.5001,-140.991 273.5001,-140.9909"/>
</g>
<!-- ListRequestService -->
<g id="node3" class="node">
<title>ListRequestService</title>
<ellipse fill="#fdb462" stroke="#000000" cx="110" cy="-104" rx="86.2483" ry="18"/>
<text text-anchor="middle" x="110" y="-99.8" font-family="Times,serif" font-size="14.00" fill="#000000">ListRequestService</text>
</g>
<!-- ListRequestService&#45;&gt;SharedModule -->
<g id="edge3" class="edge">
<title>ListRequestService&#45;&gt;SharedModule</title>
<path fill="none" stroke="#000000" d="M110,-122.1061C110,-141.3391 110,-169 110,-169 110,-169 217.3466,-169 217.3466,-169"/>
<polygon fill="#000000" stroke="#000000" points="217.3467,-172.5001 227.3466,-169 217.3466,-165.5001 217.3467,-172.5001"/>
</g>
</g>
</svg>
