<?xml version="1.0" encoding="UTF-8" standalone="no"?>
<!DOCTYPE svg PUBLIC "-//W3C//DTD SVG 1.1//EN"
 "http://www.w3.org/Graphics/SVG/1.1/DTD/svg11.dtd">
<!-- Generated by graphviz version 2.40.1 (20161225.0304)
 -->
<!-- Title: dependencies Pages: 1 -->
<svg width="619pt" height="284pt"
 viewBox="0.00 0.00 619.00 284.00" xmlns="http://www.w3.org/2000/svg" xmlns:xlink="http://www.w3.org/1999/xlink">
<g id="graph0" class="graph" transform="scale(1 1) rotate(0) translate(4 280)">
<title>dependencies</title>
<polygon fill="#ffffff" stroke="transparent" points="-4,4 -4,-280 615,-280 615,4 -4,4"/>
<text text-anchor="start" x="284.5091" y="-42.4" font-family="sans-serif" font-weight="bold" font-size="14.00" fill="#000000">Legend</text>
<polygon fill="#ffffb3" stroke="transparent" points="71.5,-10 71.5,-30 91.5,-30 91.5,-10 71.5,-10"/>
<text text-anchor="start" x="95.129" y="-15.4" font-family="sans-serif" font-size="14.00" fill="#000000"> &#160;Declarations</text>
<polygon fill="#8dd3c7" stroke="transparent" points="184.5,-10 184.5,-30 204.5,-30 204.5,-10 184.5,-10"/>
<text text-anchor="start" x="208.2251" y="-15.4" font-family="sans-serif" font-size="14.00" fill="#000000"> &#160;Module</text>
<polygon fill="#80b1d3" stroke="transparent" points="270.5,-10 270.5,-30 290.5,-30 290.5,-10 270.5,-10"/>
<text text-anchor="start" x="294.2812" y="-15.4" font-family="sans-serif" font-size="14.00" fill="#000000"> &#160;Bootstrap</text>
<polygon fill="#fdb462" stroke="transparent" points="367.5,-10 367.5,-30 387.5,-30 387.5,-10 367.5,-10"/>
<text text-anchor="start" x="391.1732" y="-15.4" font-family="sans-serif" font-size="14.00" fill="#000000"> &#160;Providers</text>
<polygon fill="#fb8072" stroke="transparent" points="463.5,-10 463.5,-30 483.5,-30 483.5,-10 463.5,-10"/>
<text text-anchor="start" x="487.2258" y="-15.4" font-family="sans-serif" font-size="14.00" fill="#000000"> &#160;Exports</text>
<g id="clust1" class="cluster">
<title>cluster_InputModule</title>
<polygon fill="none" stroke="#000000" stroke-dasharray="1,5" points="8,-70 8,-268 603,-268 603,-70 8,-70"/>
</g>
<g id="clust2" class="cluster">
<title>cluster_InputModule_declarations</title>
<polygon fill="none" stroke="#000000" points="288,-78 288,-130 595,-130 595,-78 288,-78"/>
</g>
<g id="clust5" class="cluster">
<title>cluster_InputModule_imports</title>
<polygon fill="none" stroke="#000000" points="16,-78 16,-130 280,-130 280,-78 16,-78"/>
</g>
<g id="clust6" class="cluster">
<title>cluster_InputModule_exports</title>
<polygon fill="none" stroke="#000000" points="121,-208 121,-260 435,-260 435,-208 121,-208"/>
</g>
<!-- InputContainer -->
<g id="node1" class="node">
<title>InputContainer</title>
<polygon fill="#ffffb3" stroke="#000000" points="587.2591,-122 486.7409,-122 486.7409,-86 587.2591,-86 587.2591,-122"/>
<text text-anchor="middle" x="537" y="-99.8" font-family="Times,serif" font-size="14.00" fill="#000000">InputContainer</text>
</g>
<!-- InputModule -->
<g id="node3" class="node">
<title>InputModule</title>
<polygon fill="#8dd3c7" stroke="#000000" points="340.6011,-187 337.6011,-191 316.6011,-191 313.6011,-187 251.3989,-187 251.3989,-151 340.6011,-151 340.6011,-187"/>
<text text-anchor="middle" x="296" y="-164.8" font-family="Times,serif" font-size="14.00" fill="#000000">InputModule</text>
</g>
<!-- InputContainer&#45;&gt;InputModule -->
<g id="edge1" class="edge">
<title>InputContainer&#45;&gt;InputModule</title>
<path fill="none" stroke="#000000" d="M537,-122.1061C537,-141.3391 537,-169 537,-169 537,-169 350.7654,-169 350.7654,-169"/>
<polygon fill="#000000" stroke="#000000" points="350.7655,-165.5001 340.7654,-169 350.7654,-172.5001 350.7655,-165.5001"/>
</g>
<!-- DynamicTextAreaDirective -->
<g id="node2" class="node">
<title>DynamicTextAreaDirective</title>
<polygon fill="#ffffb3" stroke="#000000" points="468.2542,-122 295.7458,-122 295.7458,-86 468.2542,-86 468.2542,-122"/>
<text text-anchor="middle" x="382" y="-99.8" font-family="Times,serif" font-size="14.00" fill="#000000">DynamicTextAreaDirective</text>
</g>
<!-- DynamicTextAreaDirective&#45;&gt;InputModule -->
<g id="edge2" class="edge">
<title>DynamicTextAreaDirective&#45;&gt;InputModule</title>
<path fill="none" stroke="#000000" d="M318.2118,-122.1061C318.2118,-122.1061 318.2118,-140.991 318.2118,-140.991"/>
<polygon fill="#000000" stroke="#000000" points="314.7118,-140.9909 318.2118,-150.991 321.7118,-140.991 314.7118,-140.9909"/>
</g>
<!-- InputContainer  -->
<g id="node6" class="node">
<title>InputContainer </title>
<polygon fill="#fb8072" stroke="#000000" points="427.2591,-252 322.7409,-252 322.7409,-216 427.2591,-216 427.2591,-252"/>
<text text-anchor="middle" x="375" y="-229.8" font-family="Times,serif" font-size="14.00" fill="#000000">InputContainer </text>
</g>
<!-- InputModule&#45;&gt;InputContainer  -->
<g id="edge5" class="edge">
<title>InputModule&#45;&gt;InputContainer </title>
<path fill="none" stroke="#000000" stroke-dasharray="5,2" d="M331.7106,-187.1061C331.7106,-187.1061 331.7106,-205.991 331.7106,-205.991"/>
<polygon fill="#000000" stroke="#000000" points="328.2106,-205.9909 331.7106,-215.991 335.2106,-205.991 328.2106,-205.9909"/>
</g>
<!-- DynamicTextAreaDirective  -->
<g id="node7" class="node">
<title>DynamicTextAreaDirective </title>
<polygon fill="#fb8072" stroke="#000000" points="304.7542,-252 129.2458,-252 129.2458,-216 304.7542,-216 304.7542,-252"/>
<text text-anchor="middle" x="217" y="-229.8" font-family="Times,serif" font-size="14.00" fill="#000000">DynamicTextAreaDirective </text>
</g>
<!-- InputModule&#45;&gt;DynamicTextAreaDirective  -->
<g id="edge6" class="edge">
<title>InputModule&#45;&gt;DynamicTextAreaDirective </title>
<path fill="none" stroke="#000000" stroke-dasharray="5,2" d="M278.1633,-187.1061C278.1633,-187.1061 278.1633,-205.991 278.1633,-205.991"/>
<polygon fill="#000000" stroke="#000000" points="274.6633,-205.9909 278.1633,-215.991 281.6633,-205.991 274.6633,-205.9909"/>
</g>
<!-- CommonModule -->
<g id="node4" class="node">
<title>CommonModule</title>
<polygon fill="#8dd3c7" stroke="#000000" points="271.6681,-122 268.6681,-126 247.6681,-126 244.6681,-122 160.3319,-122 160.3319,-86 271.6681,-86 271.6681,-122"/>
<text text-anchor="middle" x="216" y="-99.8" font-family="Times,serif" font-size="14.00" fill="#000000">CommonModule</text>
</g>
<!-- CommonModule&#45;&gt;InputModule -->
<g id="edge3" class="edge">
<title>CommonModule&#45;&gt;InputModule</title>
<path fill="none" stroke="#000000" d="M261.6417,-122.1061C261.6417,-122.1061 261.6417,-140.991 261.6417,-140.991"/>
<polygon fill="#000000" stroke="#000000" points="258.1417,-140.9909 261.6417,-150.991 265.1417,-140.991 258.1417,-140.9909"/>
</g>
<!-- ValidatorsModule -->
<g id="node5" class="node">
<title>ValidatorsModule</title>
<polygon fill="#8dd3c7" stroke="#000000" points="141.8627,-122 138.8627,-126 117.8627,-126 114.8627,-122 24.1373,-122 24.1373,-86 141.8627,-86 141.8627,-122"/>
<text text-anchor="middle" x="83" y="-99.8" font-family="Times,serif" font-size="14.00" fill="#000000">ValidatorsModule</text>
</g>
<!-- ValidatorsModule&#45;&gt;InputModule -->
<g id="edge4" class="edge">
<title>ValidatorsModule&#45;&gt;InputModule</title>
<path fill="none" stroke="#000000" d="M135.5272,-122.1061C135.5272,-141.3391 135.5272,-169 135.5272,-169 135.5272,-169 241.2994,-169 241.2994,-169"/>
<polygon fill="#000000" stroke="#000000" points="241.2994,-172.5001 251.2994,-169 241.2993,-165.5001 241.2994,-172.5001"/>
</g>
</g>
</svg>
